<svg xmlns="http://www.w3.org/2000/svg" width="900" height="360" viewBox="0 0 900 360">
  <defs>
    <linearGradient id="bg" x1="0" x2="1" y1="0" y2="1">
      <stop stop-color="#242c32"/>
      <stop offset="0.52" stop-color="#577469"/>
      <stop offset="1" stop-color="#b3891f"/>
    </linearGradient>
    <linearGradient id="fade" x1="0" x2="0" y1="0" y2="1">
      <stop stop-color="#ffffff" stop-opacity="0"/>
      <stop offset="1" stop-color="#ffffff" stop-opacity="0.82"/>
    </linearGradient>
  </defs>
  <rect width="900" height="360" fill="url(#bg)"/>
  <g transform="translate(452 174)">
    <path d="M-92 -42L4 -96L102 -38L2 18Z" fill="#ffffff" fill-opacity="0.72"/>
    <path d="M-92 -42L2 18L2 116L-92 56Z" fill="#ffffff" fill-opacity="0.46"/>
    <path d="M102 -38L2 18L2 116L102 54Z" fill="#ffffff" fill-opacity="0.34"/>
    <path d="M2 18L2 -128" stroke="#e64b3c" stroke-width="7" stroke-linecap="round"/>
    <path d="M2 18L156 54" stroke="#2fbd77" stroke-width="7" stroke-linecap="round"/>
    <path d="M2 18L-126 84" stroke="#4f88d8" stroke-width="7" stroke-linecap="round"/>
    <circle r="12" fill="#172026"/>
  </g>
  <g fill="none" stroke="#ffffff" stroke-opacity="0.22" stroke-width="2">
    <circle cx="454" cy="188" r="84"/>
    <circle cx="454" cy="188" r="126"/>
    <circle cx="454" cy="188" r="166"/>
  </g>
  <text x="58" y="54" font-family="Inter, Arial, sans-serif" font-size="28" font-weight="700" fill="#ffffff">IMU data fusion</text>
  <text x="58" y="335" font-family="Inter, Arial, sans-serif" font-size="18" fill="#ffffff" fill-opacity="0.82">orientation, estimation, embedded sensing</text>
  <rect width="900" height="360" fill="url(#fade)"/>
</svg>
