<svg xmlns="http://www.w3.org/2000/svg" width="900" height="360" viewBox="0 0 900 360">
  <defs>
    <linearGradient id="bg" x1="0" x2="1" y1="0" y2="1">
      <stop stop-color="#f8fbff"/>
      <stop offset="0.52" stop-color="#bdd7d0"/>
      <stop offset="1" stop-color="#2e5f73"/>
    </linearGradient>
    <linearGradient id="fade" x1="0" x2="0" y1="0" y2="1">
      <stop stop-color="#ffffff" stop-opacity="0"/>
      <stop offset="1" stop-color="#ffffff" stop-opacity="0.82"/>
    </linearGradient>
  </defs>
  <rect width="900" height="360" fill="url(#bg)"/>
  <g stroke="#20313a" stroke-opacity="0.16" stroke-width="1">
    <path d="M80 40V308M200 40V308M320 40V308M440 40V308M560 40V308M680 40V308M800 40V308"/>
    <path d="M54 80H840M54 140H840M54 200H840M54 260H840"/>
  </g>
  <path d="M62 286H140V112H222V95H308V90H392V88H482V88H840" fill="none" stroke="#123f3a" stroke-width="9" stroke-linejoin="round"/>
  <path d="M62 286C122 286 142 112 200 118C258 124 286 72 346 86C420 104 464 78 540 88C626 99 690 88 840 88" fill="none" stroke="#a43f3f" stroke-width="5" stroke-linecap="round"/>
  <circle cx="346" cy="86" r="10" fill="#a43f3f"/>
  <text x="62" y="54" font-family="Inter, Arial, sans-serif" font-size="28" font-weight="700" fill="#172026">RNN system identification</text>
  <text x="62" y="335" font-family="Inter, Arial, sans-serif" font-size="18" fill="#3d4b52">measured response vs learned dynamics</text>
  <rect width="900" height="360" fill="url(#fade)"/>
</svg>
